{
  "accessors": [
    {
      "bufferView": 2,
      "componentType": 5126,
      "count": 44,
      "max": [
        0.5117501020431519,
        3.272547960281372,
        1.0696804523468018
      ],
      "min": [
        -0.5117501020431519,
        1.9122920036315918,
        0.7553542852401733
      ],
      "type": "VEC3"
    },
    {
      "bufferView": 2,
      "byteOffset": 528,
      "componentType": 5126,
      "count": 44,
      "max": [
        0.9724291563034058,
        0.16903835535049438,
        0.9849222898483276
      ],
      "min": [
        -0.9724291563034058,
        -0.1291193813085556,
        -0.9951616525650024
      ],
      "type": "VEC3"
    },
    {
      "bufferView": 1,
      "componentType": 5126,
      "count": 44,
      "max": [
        0.6782417297363281,
        1.167510986328125
      ],
      "min": [
        0.2875397503376007,
        0.03812190890312195
      ],
      "type": "VEC2"
    },
    {
      "bufferView": 1,
      "byteOffset": 352,
      "componentType": 5126,
      "count": 44,
      "max": [
        0.6782417297363281,
        1.167510986328125
      ],
      "min": [
        0.2875397503376007,
        0.03812190890312195
      ],
      "type": "VEC2"
    },
    {
      "bufferView": 0,
      "componentType": 5125,
      "count": 72,
      "type": "SCALAR"
    },
    {
      "bufferView": 2,
      "byteOffset": 1056,
      "componentType": 5126,
      "count": 24,
      "max": [
        0.8174337148666382,
        2.457932949066162,
        1.1995636224746704
      ],
      "min": [
        -0.8174337148666382,
        1.9043283462524414,
        0.5328431129455566
      ],
      "type": "VEC3"
    },
    {
      "bufferView": 2,
      "byteOffset": 1344,
      "componentType": 5126,
      "count": 24,
      "max": [
        0.8971646428108215,
        0.5258098244667053,
        0.9843004941940308
      ],
      "min": [
        -0.8971646428108215,
        0.14810575544834137,
        -0.8719184398651123
      ],
      "type": "VEC3"
    },
    {
      "bufferView": 1,
      "byteOffset": 704,
      "componentType": 5126,
      "count": 24,
      "max": [
        0.8873090744018555,
        0.9581319093704224
      ],
      "min": [
        0.04235987365245819,
        0.01721346564590931
      ],
      "type": "VEC2"
    },
    {
      "bufferView": 1,
      "byteOffset": 896,
      "componentType": 5126,
      "count": 24,
      "max": [
        0.8873090744018555,
        0.9581319093704224
      ],
      "min": [
        0.04235987365245819,
        0.01721346564590931
      ],
      "type": "VEC2"
    },
    {
      "bufferView": 0,
      "byteOffset": 288,
      "componentType": 5125,
      "count": 72,
      "type": "SCALAR"
    },
    {
      "bufferView": 2,
      "byteOffset": 1632,
      "componentType": 5126,
      "count": 744,
      "max": [
        1.9373862743377686,
        2.1584839820861816,
        1.326321005821228
      ],
      "min": [
        -1.9373862743377686,
        -1.8108093738555908,
        -0.009665630757808685
      ],
      "type": "VEC3"
    },
    {
      "bufferView": 2,
      "byteOffset": 10560,
      "componentType": 5126,
      "count": 744,
      "max": [
        0.9999598264694214,
        0.9994661808013916,
        0.9999943971633911
      ],
      "min": [
        -0.9999598264694214,
        -0.9724080562591553,
        -0.9973583221435547
      ],
      "type": "VEC3"
    },
    {
      "bufferView": 1,
      "byteOffset": 1088,
      "componentType": 5126,
      "count": 744,
      "max": [
        0.863325834274292,
        0.9989705085754395
      ],
      "min": [
        0.01669367030262947,
        0.7523045539855957
      ],
      "type": "VEC2"
    },
    {
      "bufferView": 1,
      "byteOffset": 7040,
      "componentType": 5126,
      "count": 744,
      "max": [
        0.863325834274292,
        0.9989705085754395
      ],
      "min": [
        0.01669367030262947,
        0.7523045539855957
      ],
      "type": "VEC2"
    },
    {
      "bufferView": 0,
      "byteOffset": 576,
      "componentType": 5125,
      "count": 2034,
      "type": "SCALAR"
    },
    {
      "bufferView": 3,
      "componentType": 5126,
      "count": 5,
      "max": [
        1.0,
        0.0,
        0.0,
        0.0,
        0.0,
        1.0,
        0.0,
        0.0,
        0.0,
        0.0,
        1.0,
        0.0,
        0.0,
        0.0,
        0.0,
        1.0
      ],
      "min": [
        1.0,
        0.0,
        0.0,
        0.0,
        0.0,
        1.0,
        0.0,
        0.0,
        0.0,
        0.0,
        1.0,
        0.0,
        0.0,
        0.0,
        0.0,
        1.0
      ],
      "type": "MAT4"
    },
    {
      "bufferView": 4,
      "componentType": 5126,
      "count": 238,
      "max": [
        4.958333492279053
      ],
      "min": [
        0.0
      ],
      "type": "SCALAR"
    },
    {
      "bufferView": 5,
      "componentType": 5126,
      "count": 238,
      "max": [
        1.3387762010097504e-09,
        0.11046748608350754,
        0.0010775651317089796
      ],
      "min": [
        9.058567229658365e-10,
        0.11046728491783142,
        0.0010775296250358224
      ],
      "type": "VEC3"
    },
    {
      "bufferView": 4,
      "byteOffset": 952,
      "componentType": 5126,
      "count": 238,
      "max": [
        4.958333492279053
      ],
      "min": [
        0.0
      ],
      "type": "SCALAR"
    },
    {
      "bufferView": 5,
      "byteOffset": 2856,
      "componentType": 5126,
      "count": 238,
      "max": [
        1.0,
        2.395066261291504,
        0.9999999403953552
      ],
      "min": [
        0.9999999403953552,
        1.5575544834136963,
        0.9999999403953552
      ],
      "type": "VEC3"
    },
    {
      "bufferView": 4,
      "byteOffset": 1904,
      "componentType": 5126,
      "count": 238,
      "max": [
        4.958333492279053
      ],
      "min": [
        0.0
      ],
      "type": "SCALAR"
    },
    {
      "bufferView": 6,
      "componentType": 5126,
      "count": 238,
      "max": [
        -2.1860731891365504e-08,
        1.8189892951256392e-12,
        -1.4267382414390184e-11,
        1.0
      ],
      "min": [
        -2.216827255097087e-08,
        -1.8189892951256392e-12,
        -2.43589887843898e-11,
        1.0
      ],
      "type": "VEC4"
    },
    {
      "bufferView": 4,
      "byteOffset": 2856,
      "componentType": 5126,
      "count": 238,
      "max": [
        4.958333492279053
      ],
      "min": [
        0.0
      ],
      "type": "SCALAR"
    },
    {
      "bufferView": 5,
      "byteOffset": 5712,
      "componentType": 5126,
      "count": 238,
      "max": [
        1.0,
        1.0711296796798706,
        1.0000001192092896
      ],
      "min": [
        1.0,
        0.8553086519241333,
        1.0000001192092896
      ],
      "type": "VEC3"
    },
    {
      "bufferView": 4,
      "byteOffset": 3808,
      "componentType": 5126,
      "count": 238,
      "max": [
        4.958333492279053
      ],
      "min": [
        0.0
      ],
      "type": "SCALAR"
    },
    {
      "bufferView": 6,
      "byteOffset": 3808,
      "componentType": 5126,
      "count": 238,
      "max": [
        0.9999445676803589,
        4.733043817983784e-11,
        -9.53617529830808e-07,
        0.01053007785230875
      ],
      "min": [
        0.9999445676803589,
        3.9950052814485826e-12,
        -9.536175866742269e-07,
        0.01053007785230875
      ],
      "type": "VEC4"
    },
    {
      "bufferView": 4,
      "byteOffset": 4760,
      "componentType": 5126,
      "count": 238,
      "max": [
        4.958333492279053
      ],
      "min": [
        0.0
      ],
      "type": "SCALAR"
    },
    {
      "bufferView": 5,
      "byteOffset": 8568,
      "componentType": 5126,
      "count": 238,
      "max": [
        -1.2427844749638426e-16,
        0.8679512739181519,
        -1.0925917625427246
      ],
      "min": [
        -0.007125662639737129,
        0.3858881890773773,
        -1.1050387620925903
      ],
      "type": "VEC3"
    },
    {
      "bufferView": 4,
      "byteOffset": 5712,
      "componentType": 5126,
      "count": 238,
      "max": [
        4.958333492279053
      ],
      "min": [
        0.0
      ],
      "type": "SCALAR"
    },
    {
      "bufferView": 6,
      "byteOffset": 7616,
      "componentType": 5126,
      "count": 238,
      "max": [
        0.7185646295547485,
        0.028052138164639473,
        0.02800997532904148,
        0.6954602003097534
      ],
      "min": [
        0.718008816242218,
        -0.028254687786102295,
        -0.03016098216176033,
        0.6948059797286987
      ],
      "type": "VEC4"
    }
  ],
  "animations": [
    {
      "channels": [
        {
          "sampler": 0,
          "target": {
            "node": 10,
            "path": "translation"
          }
        },
        {
          "sampler": 1,
          "target": {
            "node": 10,
            "path": "scale"
          }
        },
        {
          "sampler": 2,
          "target": {
            "node": 10,
            "path": "rotation"
          }
        },
        {
          "sampler": 3,
          "target": {
            "node": 9,
            "path": "scale"
          }
        },
        {
          "sampler": 4,
          "target": {
            "node": 9,
            "path": "rotation"
          }
        },
        {
          "sampler": 5,
          "target": {
            "node": 8,
            "path": "translation"
          }
        },
        {
          "sampler": 6,
          "target": {
            "node": 8,
            "path": "rotation"
          }
        }
      ],
      "name": "Armature|Idle",
      "samplers": [
        {
          "input": 16,
          "interpolation": "LINEAR",
          "output": 17
        },
        {
          "input": 18,
          "interpolation": "LINEAR",
          "output": 19
        },
        {
          "input": 20,
          "interpolation": "LINEAR",
          "output": 21
        },
        {
          "input": 22,
          "interpolation": "LINEAR",
          "output": 23
        },
        {
          "input": 24,
          "interpolation": "LINEAR",
          "output": 25
        },
        {
          "input": 26,
          "interpolation": "LINEAR",
          "output": 27
        },
        {
          "input": 28,
          "interpolation": "LINEAR",
          "output": 29
        }
      ]
    }
  ],
  "asset": {
    "extras": {
      "author": "amunozs (https://sketchfab.com/adrian.sierra92)",
      "license": "CC-BY-4.0 (http://creativecommons.org/licenses/by/4.0/)",
      "source": "https://sketchfab.com/3d-models/retro-spaceship-1c7c2d03294b45aaa9d75fe975b61e1b",
      "title": "Retro Spaceship"
    },
    "generator": "Sketchfab-15.38.0",
    "version": "2.0"
  },
  "bufferViews": [
    {
      "buffer": 0,
      "byteLength": 8712,
      "name": "floatBufferViews",
      "target": 34963
    },
    {
      "buffer": 0,
      "byteLength": 12992,
      "byteOffset": 8712,
      "byteStride": 8,
      "name": "floatBufferViews",
      "target": 34962
    },
    {
      "buffer": 0,
      "byteLength": 19488,
      "byteOffset": 21704,
      "byteStride": 12,
      "name": "floatBufferViews",
      "target": 34962
    },
    {
      "buffer": 0,
      "byteLength": 320,
      "byteOffset": 41192,
      "name": "floatBufferViews"
    },
    {
      "buffer": 0,
      "byteLength": 6664,
      "byteOffset": 41512,
      "name": "floatBufferViews"
    },
    {
      "buffer": 0,
      "byteLength": 11424,
      "byteOffset": 48176,
      "byteStride": 12,
      "name": "floatBufferViews"
    },
    {
      "buffer": 0,
      "byteLength": 11424,
      "byteOffset": 59600,
      "byteStride": 16,
      "name": "floatBufferViews"
    }
  ],
  "buffers": [
    {
      "byteLength": 71024,
      "uri": "scene.bin"
    }
  ],
  "extensionsUsed": [
    "KHR_materials_specular"
  ],
  "images": [
    {
      "uri": "textures/beam_M_baseColor.png"
    },
    {
      "uri": "textures/beam_M_emissive.png"
    },
    {
      "uri": "textures/spaceship_M_baseColor.png"
    }
  ],
  "materials": [
    {
      "alphaMode": "BLEND",
      "doubleSided": true,
      "emissiveFactor": [
        1.0,
        1.0,
        1.0
      ],
      "emissiveTexture": {
        "index": 1
      },
      "extensions": {
        "KHR_materials_specular": {
          "specularColorFactor": [
            1.0,
            1.0,
            1.0
          ],
          "specularFactor": 0.5462261596680456
        }
      },
      "name": "beam_M",
      "pbrMetallicRoughness": {
        "baseColorTexture": {
          "index": 0
        },
        "metallicFactor": 0.0,
        "roughnessFactor": 0.8211145618000169
      }
    },
    {
      "doubleSided": true,
      "extensions": {
        "KHR_materials_specular": {
          "specularColorFactor": [
            1.0,
            1.0,
            1.0
          ],
          "specularFactor": 0.3069570637904003
        }
      },
      "name": "spaceship_M",
      "pbrMetallicRoughness": {
        "baseColorTexture": {
          "index": 2
        },
        "metallicFactor": 0.0
      }
    }
  ],
  "meshes": [
    {
      "name": "spaceship.003_beam_M_0",
      "primitives": [
        {
          "attributes": {
            "NORMAL": 1,
            "POSITION": 0,
            "TEXCOORD_0": 2,
            "TEXCOORD_1": 3
          },
          "indices": 4,
          "material": 0,
          "mode": 4
        }
      ]
    },
    {
      "name": "spaceship.002_beam_M_0",
      "primitives": [
        {
          "attributes": {
            "NORMAL": 6,
            "POSITION": 5,
            "TEXCOORD_0": 7,
            "TEXCOORD_1": 8
          },
          "indices": 9,
          "material": 0,
          "mode": 4
        }
      ]
    },
    {
      "name": "spaceship.001_spaceship_M_0",
      "primitives": [
        {
          "attributes": {
            "NORMAL": 11,
            "POSITION": 10,
            "TEXCOORD_0": 12,
            "TEXCOORD_1": 13
          },
          "indices": 14,
          "material": 1,
          "mode": 4
        }
      ]
    }
  ],
  "nodes": [
    {
      "children": [
        1
      ],
      "matrix": [
        -0.5582472681999207,
        1.5813857472785334e-16,
        3.5113817348853736e-32,
        0.0,
        0.0,
        1.2395579411792938e-16,
        -0.5582472681999207,
        0.0,
        -1.5813857472785334e-16,
        -0.5582472681999207,
        -1.2395579411792938e-16,
        0.0,
        0.0,
        0.0,
        0.0,
        1.0
      ],
      "name": "Sketchfab_model"
    },
    {
      "children": [
        2
      ],
      "matrix": [
        0.009999999776482582,
        0.0,
        0.0,
        0.0,
        0.0,
        -0.009999999776482582,
        0.0,
        0.0,
        0.0,
        0.0,
        -0.009999999776482582,
        0.0,
        0.0,
        0.0,
        0.0,
        1.0
      ],
      "name": "86930f5693804b09a93a028fbe00ff20.fbx"
    },
    {
      "children": [
        3
      ],
      "name": "Object_2"
    },
    {
      "children": [
        4
      ],
      "name": "RootNode"
    },
    {
      "children": [
        5
      ],
      "name": "Armature",
      "rotation": [
        0.0,
        0.0,
        1.0,
        -4.371138828673793e-08
      ],
      "scale": [
        100.0,
        100.0,
        100.0
      ]
    },
    {
      "children": [
        6
      ],
      "name": "Object_5"
    },
    {
      "children": [
        7
      ],
      "name": "_rootJoint"
    },
    {
      "children": [
        8
      ],
      "name": "Bone_00",
      "rotation": [
        0.7071068286895752,
        9.358480955133946e-24,
        9.358479377412135e-24,
        0.7071067094802856
      ]
    },
    {
      "children": [
        9,
        15
      ],
      "name": "Bone.001_01",
      "rotation": [
        0.7180279493331909,
        0.027806567028164864,
        0.027756093069911003,
        0.6949045062065125
      ],
      "translation": [
        -0.0010308356722816825,
        0.8683491349220276,
        -1.0907152891159058
      ]
    },
    {
      "children": [
        10,
        13
      ],
      "name": "Bone.002_02",
      "rotation": [
        0.9999445676803589,
        -2.6741407699315545e-11,
        -9.50875289618125e-07,
        0.01053011417388916
      ],
      "scale": [
        0.9999999403953552,
        1.0532727241516113,
        1.0000001192092896
      ],
      "translation": [
        8.498318493366241e-09,
        -0.4791925251483917,
        0.004863948095589876
      ]
    },
    {
      "children": [
        11
      ],
      "name": "Bone.003_03",
      "rotation": [
        -2.2239657226919007e-08,
        3.7136942410143092e-09,
        -2.8825261622067444e-11,
        1.0
      ],
      "scale": [
        1.0,
        2.0193281173706055,
        0.9999998807907104
      ],
      "translation": [
        1.2223608791828156e-08,
        0.11046729981899261,
        0.0010774045949801803
      ]
    },
    {
      "children": [
        12
      ],
      "name": "spaceship.003",
      "rotation": [
        -0.054516371339559555,
        4.756821283535828e-07,
        2.578069491221413e-08,
        0.9985129833221436
      ],
      "scale": [
        1.0,
        1.0,
        0.9999999403953552
      ],
      "translation": [
        -5.960464477539063e-07,
        -2.134397506713867,
        -0.6235955953598022
      ]
    },
    {
      "mesh": 0,
      "name": "spaceship.003_beam_M_0"
    },
    {
      "children": [
        14
      ],
      "name": "spaceship.002",
      "rotation": [
        -0.05451638996601105,
        4.756821283535828e-07,
        2.5984723706073964e-08,
        0.9985129833221436
      ],
      "scale": [
        1.0,
        1.0,
        0.9999998211860657
      ],
      "translation": [
        -5.811452865600586e-07,
        -2.023930311203003,
        -0.6225178837776184
      ]
    },
    {
      "mesh": 1,
      "name": "spaceship.002_beam_M_0"
    },
    {
      "children": [
        16
      ],
      "name": "spaceship.001",
      "rotation": [
        0.9978834390640259,
        3.1032186598167755e-08,
        -4.7224889954122773e-07,
        0.0650278851389885
      ],
      "translation": [
        5.476176738739014e-07,
        1.5573984384536743,
        0.5846216678619385
      ]
    },
    {
      "mesh": 2,
      "name": "spaceship.001_spaceship_M_0"
    }
  ],
  "samplers": [
    {
      "magFilter": 9729,
      "minFilter": 9987,
      "wrapS": 10497,
      "wrapT": 10497
    }
  ],
  "scene": 0,
  "scenes": [
    {
      "name": "Sketchfab_Scene",
      "nodes": [
        0
      ]
    }
  ],
  "skins": [
    {
      "inverseBindMatrices": 15,
      "joints": [
        6,
        7,
        8,
        9,
        10
      ],
      "skeleton": 6
    }
  ],
  "textures": [
    {
      "sampler": 0,
      "source": 0
    },
    {
      "sampler": 0,
      "source": 1
    },
    {
      "sampler": 0,
      "source": 2
    }
  ]
}
